<svg xmlns:xlink="http://www.w3.org/1999/xlink" class="SVGInline-svg d-flex-svg icon__IconStyles__colorDefault-svg mr-sm-svg" style="width: 24px;height: 24px;" xmlns="http://www.w3.org/2000/svg" width="50" height="50" viewBox="0 0 24 24"><path d="M14.55 20a1.41 1.41 0 01-.57-.11 1.5 1.5 0 01-1-1.41V15H7.5A1.5 1.5 0 016 13.5v-3A1.5 1.5 0 017.5 9H13V5.52a1.5 1.5 0 011-1.41 1.53 1.53 0 011.71.4l5.9 6.49a1.5 1.5 0 010 2l-5.92 6.48a1.53 1.53 0 01-1.14.52zm-7-10a.5.5 0 00-.5.5v3a.5.5 0 00.5.5H14v4.48a.51.51 0 00.34.48.55.55 0 00.62-.14l5.91-6.48a.52.52 0 000-.68L15 5.18a.56.56 0 00-.66-.18.51.51 0 00-.34.48V10zm1 9h-3A3.5 3.5 0 012 15.5v-7A3.5 3.5 0 015.5 5h3a.5.5 0 010 1h-3A2.5 2.5 0 003 8.5v7A2.5 2.5 0 005.5 18h3a.5.5 0 010 1" fill="#bfbfbf" fill-rule="evenodd"></path></svg>
